<?xml version="1.0" encoding="iso-8859-1"?>
<!-- Generator: Adobe Illustrator 19.0.0, SVG Export Plug-In . SVG Version: 6.00 Build 0)  -->
<svg version="1.1" id="Layer_1" xmlns="http://www.w3.org/2000/svg" xmlns:xlink="http://www.w3.org/1999/xlink" x="0px" y="0px"
	 viewBox="0 0 512 512" style="enable-background:new 0 0 512 512;" xml:space="preserve">
<path style="fill:#FFD7A3;" d="M445.161,333.333c43.2-52.907,53.333-5.333,53.333-5.333s-42.667,101.973-117.333,117.973
	S130.494,456,130.494,456l-58.667,48H13.161V376h58.667l32-37.333c0,0,10.667-10.667,26.667-15.36c15.36-4.587,208-32,208-32
	s32-5.333,32,16c0,21.333-37.333,32-37.333,32l-106.667,26.667c0,0-16,4.693-16,15.36l21.333,16l128,0.64
	C359.827,397.973,397.161,392,445.161,333.333z"/>
<path style="fill:#F3CE9C;" d="M84.645,361.045L71.827,376H13.161v128h58.667l58.667-48c0,0,176,5.973,250.667-10.027
	c42.253-9.054,74.235-45.625,94.06-75.682C358.405,461.075,194.88,455.551,84.645,361.045z"/>
<path d="M74.683,512H5.161V368h62.987l30.022-34.991c0.494-0.494,12.315-12.171,30.071-17.379
	c15.425-4.606,188.858-29.359,209.04-32.233c2.672-0.435,22.166-3.198,33.475,6.381c5.062,4.288,7.738,10.349,7.738,17.527
	c0,26.601-38.721,38.431-43.135,39.693l-0.257,0.068l-106.473,26.618c-2.551,0.794-6.433,2.71-8.577,4.817l14.46,10.845
	l124.534,0.622c4.371-1.015,37.81-10.235,79.918-61.695l0,0c17.657-21.622,32.787-30.547,46.269-27.287
	c7.069,1.711,12.998,6.81,17.147,14.745c2.757,5.275,3.826,10.071,3.939,10.602l0.521,2.447l-0.965,2.307
	c-1.808,4.322-45.177,106.022-123.038,122.708c-70.281,15.059-225.238,11.038-249.599,10.295L74.683,512z M21.161,496h47.811
	l58.786-48.098l3.008,0.102c1.749,0.061,175.872,5.756,248.719-9.853c63.377-13.581,103.506-95.403,110.528-110.765
	c-1.298-3.833-4.185-9.815-8.571-10.857c-2.404-0.572-11.68-0.676-30.084,21.862l-0.005,0.006
	c-49.358,60.327-88.614,67.211-90.261,67.474l-0.647,0.103l-131.3-0.656l-26.649-19.986v-4c0-5.061,2.039-12.372,11.751-18.46
	c4.798-3.006,9.478-4.426,9.997-4.577l0.311-0.085l106.525-26.631c8.276-2.413,31.415-11.914,31.415-24.274
	c0-3.153-1.111-4.499-2.079-5.318c-4.64-3.932-15.889-3.578-20.605-2.789l-0.189,0.028
	c-77.198,10.987-195.988,28.507-206.838,31.746c-12.691,3.723-21.79,11.933-23.129,13.189L75.507,384H21.161
	C21.161,384,21.161,496,21.161,496z"/>
<path style="fill:#FFD311;" d="M247.827,50.667c44.16,0,80,35.84,80,80s-35.84,80-80,80s-80-35.84-80-80
	S203.667,50.667,247.827,50.667z"/>
<path style="fill:#F8B71F;" d="M221.161,130.667c0-34.796,22.292-64.343,53.333-75.345c-8.353-2.96-17.302-4.655-26.667-4.655
	c-44.16,0-80,35.84-80,80s35.84,80,80,80c9.364,0,18.314-1.695,26.667-4.655C243.453,195.01,221.161,165.463,221.161,130.667z"/>
<path style="fill:#FFD311;" d="M247.827,8c67.733,0,122.667,54.933,122.667,122.667s-54.933,122.667-122.667,122.667
	S125.161,198.4,125.161,130.667S180.094,8,247.827,8z M327.827,130.667c0-44.16-35.84-80-80-80s-80,35.84-80,80s35.84,80,80,80
	S327.827,174.827,327.827,130.667z"/>
<path d="M247.827,261.333c-72.05,0-130.667-58.617-130.667-130.667S175.777,0,247.827,0s130.667,58.617,130.667,130.667
	S319.877,261.333,247.827,261.333z M247.827,16c-63.228,0-114.667,51.44-114.667,114.667s51.439,114.667,114.667,114.667
	c63.227,0,114.667-51.44,114.667-114.667S311.054,16,247.827,16z"/>
<path d="M247.827,218.667c-48.524,0-88-39.477-88-88s39.476-88,88-88c48.523,0,88,39.477,88,88S296.35,218.667,247.827,218.667z
	 M247.827,58.667c-39.701,0-72,32.299-72,72s32.299,72,72,72s72-32.299,72-72S287.529,58.667,247.827,58.667z"/>
<g>
	<path style="fill:#FFFFFF;" d="M254.938,119.111h-14.222c-3.431,0-6.222-2.791-6.222-6.223c0-3.431,2.791-6.222,6.222-6.222h14.222
		c3.43,0,6.222,2.79,6.222,6.222h16c0-11.953-9.493-21.705-21.333-22.177V72h-16v18.711c-11.84,0.471-21.333,10.224-21.333,22.177
		c0,12.254,9.969,22.223,22.222,22.223h14.222c3.43,0,6.222,2.79,6.222,6.222s-2.791,6.222-6.222,6.222h-14.222
		c-3.431,0-6.222-2.79-6.222-6.222h-16c0,11.953,9.493,21.705,21.333,22.177V184h16v-20.49c11.84-0.471,21.333-10.224,21.333-22.177
		C277.161,129.081,267.191,119.111,254.938,119.111z"/>
	<rect x="58.494" y="384.533" style="fill:#FFFFFF;" width="16" height="66.133"/>
</g>
<g>
</g>
<g>
</g>
<g>
</g>
<g>
</g>
<g>
</g>
<g>
</g>
<g>
</g>
<g>
</g>
<g>
</g>
<g>
</g>
<g>
</g>
<g>
</g>
<g>
</g>
<g>
</g>
<g>
</g>
</svg>
